<svg height="2406" viewBox="-.12 0 59.2 57.1" width="2500" xmlns="http://www.w3.org/2000/svg"><path d="m58.78 26.3c-3.3-3.4-21.4-22-24.7-24.7-1.2-.9-2.7-1.6-4.6-1.6s-3.4.7-4.6 1.6c-3.4 2.7-21.4 21.3-24.8 24.7-.2.3 0 .8.4.8h7.8c.8 0 1.1-.1 1.6-.7s3.1-3.3 3.1-3.3c3.3-3.5 11.2-11.3 14.1-13.7 1.1-.9 2.3-.9 2.3-.9s1.3 0 2.3.9c3 2.5 11 10.2 14.2 13.7 0 0 2.6 2.8 3.1 3.3.5.6.8.7 1.6.7h7.8c.4 0 .7-.5.4-.8m-58.7 4.5c3.3 3.4 21.4 22 24.7 24.7 1.2.9 2.7 1.6 4.6 1.6s3.4-.7 4.6-1.6c3.4-2.7 21.4-21.3 24.7-24.7.3-.3 0-.8-.4-.8h-7.8c-.8 0-1.1.1-1.6.7s-3.1 3.3-3.1 3.3c-3.3 3.5-11.2 11.3-14.1 13.7-1.1.9-2.3.9-2.3.9s-1.3 0-2.3-.9c-2.9-2.4-10.9-10.2-14.1-13.7 0 0-2.6-2.8-3.1-3.3-.5-.6-.8-.7-1.6-.7h-7.8c-.4-.1-.6.4-.4.8m27.2 3.9c-1.5-1.4-4.1-3.9-5.1-5-.4-.5-.4-1.1-.4-1.1s0-.6.4-1.1c1-1.1 3.6-3.7 5.1-5 .6-.6.8-.9.8-1.6v-7.7c0-.3-.4-.5-.6-.2-3.3 3.1-10.7 10.4-13.2 13.2-1.2 1.3-1.1 2.5-1.1 2.5s-.1 1.3 1.1 2.5c2.5 2.8 9.9 10.2 13.2 13.2.3.3.6.1.6-.3v-7.7c-.1-.8-.2-1.1-.8-1.7m4.3 0c1.5-1.4 4.1-3.9 5.1-5 .4-.5.4-1.1.4-1.1s0-.6-.4-1.1c-1-1.1-3.6-3.7-5.1-5-.6-.6-.8-.9-.8-1.6v-7.7c0-.4.3-.5.6-.3 3.3 3.1 10.7 10.4 13.2 13.2 1.2 1.3 1.1 2.5 1.1 2.5s.1 1.3-1.1 2.5c-2.5 2.8-9.9 10.2-13.2 13.2-.3.3-.6.1-.6-.3v-7.7c.1-.7.2-1 .8-1.6" fill="#ffac00"/></svg>