<svg xmlns="http://www.w3.org/2000/svg" width="53.537" height="15.089" viewBox="0 0 53.537 15.089">
  <g id="car-icon-bar-transparent" transform="matrix(0.999, -0.035, 0.035, 0.999, 0, 1.854)">
    <g id="Group_13" data-name="Group 13" transform="translate(0 0)">
      <path id="Path_244" data-name="Path 244" d="M.053,43.2a.439.439,0,0,1,.321-.214H.962s-.321-1.5-.428-2.3a.321.321,0,0,1,.053-.214c.107-.107.267-.107.267-.16.535-.053,8.926-2.191,13.47-3.848a6.432,6.432,0,0,1,1.016-.374c2.085-.214,6.254-.107,7.964-.053a3.4,3.4,0,0,1,1.443.374s4.169,2.512,5.612,3.1c2.512,1.069,8.445.748,10.049.641a13.1,13.1,0,0,1,9.14,2.405,12.976,12.976,0,0,1,3.1,1.229q.481.321.481.641a.858.858,0,0,1-.267.588.642.642,0,0,1-.321.16l-.107.374a2.433,2.433,0,0,1-1.39,1.6l-1.283.535a5.719,5.719,0,0,1-2.3.481,4.452,4.452,0,0,0,.214-.8,1.467,1.467,0,0,0,.107-.641,4.556,4.556,0,0,0-1.176-3.26,4.375,4.375,0,0,0-3.154-1.443A4.625,4.625,0,0,0,38.7,46.4v.374a3.887,3.887,0,0,0,.374,1.55H38l-21.915.214A4.159,4.159,0,0,0,17.1,46.351a2,2,0,0,0,.053-.588,4.556,4.556,0,0,0-1.176-3.26,4.375,4.375,0,0,0-3.154-1.443,4.625,4.625,0,0,0-4.757,4.383v.374a3.722,3.722,0,0,0,.267,1.336l-4.33-.107a.408.408,0,0,1-.267-.107L2.726,45.763,1.6,45.71a.462.462,0,0,1-.321-.16L0,43.625A1.042,1.042,0,0,1,.053,43.2ZM18.28,39.4h.107a1.039,1.039,0,0,1,.748.481c.962.588,5.505.641,8.552.267L24.16,37.265a.933.933,0,0,0-.641-.214L18.387,37a.5.5,0,0,0-.535.535L17.8,38.868A.7.7,0,0,0,18.28,39.4Z" transform="translate(0 -35.961)" fill="#6e4dd5"/>
    </g>
    <path id="Path_245" data-name="Path 245" d="M72.307,46.5a3.949,3.949,0,0,1,3.8,4.116,1.48,1.48,0,0,1-.053.481,3.956,3.956,0,0,1-7.857-.481v-.321A3.917,3.917,0,0,1,72.307,46.5Zm-.16,6.254a2.3,2.3,0,1,0-2.3-2.3A2.281,2.281,0,0,0,72.147,52.75Z" transform="translate(-59.425 -40.863)" fill="#6e4dd5"/>
    <path id="Path_246" data-name="Path 246" d="M15.107,48.3a3.917,3.917,0,0,1,3.8,4.116,1.48,1.48,0,0,1-.053.481,3.956,3.956,0,0,1-7.857-.481v-.321A3.917,3.917,0,0,1,15.107,48.3Zm-.16,6.254a2.3,2.3,0,1,0-2.3-2.3A2.281,2.281,0,0,0,14.946,54.55Z" transform="translate(28.349 -41.701)" fill="#6e4dd5"/>
  </g>
</svg>
