<svg id="build-24px" xmlns="http://www.w3.org/2000/svg" width="19.868" height="19.868" viewBox="0 0 19.868 19.868">
  <path id="Path_213" data-name="Path 213" d="M0,0H19.868V19.868H0Z" fill="none"/>
  <path id="Path_214" data-name="Path 214" d="M18.956,15.918,11.423,8.385a5.313,5.313,0,0,0-1.242-5.712A5.473,5.473,0,0,0,4.055,1.6l3.56,3.56L5.132,7.64,1.489,4.08a5.335,5.335,0,0,0,1.076,6.126,5.313,5.313,0,0,0,5.712,1.242l7.533,7.533a.8.8,0,0,0,1.159,0l1.9-1.9a.746.746,0,0,0,.083-1.159Z" transform="translate(-0.165 -0.189)" fill="#222"/>
</svg>
