<?xml version="1.0" encoding="utf-8"?>
<!-- Generator: Adobe Illustrator 24.3.0, SVG Export Plug-In . SVG Version: 6.00 Build 0)  -->
<svg version="1.1" id="Layer_1" xmlns="http://www.w3.org/2000/svg" xmlns:xlink="http://www.w3.org/1999/xlink" x="0px" y="0px"
	 viewBox="0 0 24 24" style="enable-background:new 0 0 24 24;" xml:space="preserve">
<style type="text/css">
	.st0{fill:none;}
	.st1{fill:#333333;}
</style>
<path class="st0" d="M0,0h24v24H0V0z"/>
<path class="st1" d="M21.2,2.7c-0.3-0.8-1-1.3-1.9-1.3H4.7c-0.9,0-1.6,0.6-1.9,1.3l-2.8,8v10.7c0,0.7,0.6,1.3,1.3,1.3h1.3
	C3.4,22.6,4,22,4,21.3V20h16v1.3c0,0.7,0.6,1.3,1.3,1.3h1.3c0.7,0,1.3-0.6,1.3-1.3V10.7L21.2,2.7z M4.7,16c-1.1,0-2-0.9-2-2
	s0.9-2,2-2s2,0.9,2,2S5.8,16,4.7,16z M19.3,16c-1.1,0-2-0.9-2-2s0.9-2,2-2c1.1,0,2,0.9,2,2S20.4,16,19.3,16z M2.7,9.3l2-6h14.7l2,6
	H2.7z"/>
</svg>
