<?xml version="1.0" encoding="utf-8"?>
<!-- Generator: Adobe Illustrator 24.3.0, SVG Export Plug-In . SVG Version: 6.00 Build 0)  -->
<svg version="1.1" id="Layer_1" xmlns="http://www.w3.org/2000/svg" xmlns:xlink="http://www.w3.org/1999/xlink" x="0px" y="0px"
	 viewBox="0 0 1000 1000" style="enable-background:new 0 0 1000 1000;" xml:space="preserve">
<style type="text/css">
	.st0{fill:#333333;}
</style>
<g>
	<g transform="translate(0.000000,511.000000) scale(0.100000,-0.100000)">
		<path class="st0" d="M648.9,5093.9l-99-10.4v-924.1v-921.5h208.3h208.3v364.5v364.5h106.7c182.2,0,260.3-65.1,309.8-260.3
			c18.3-65.1,54.7-195.3,83.3-291.6l49.5-177H1732h218.7l-46.8,164c-26,88.5-72.8,249.9-104.2,356.6
			c-41.6,143.2-80.7,216.1-145.8,275.9l-85.9,83.3l101.5,67.6c195.3,127.5,262.9,398.3,158.8,630c-99,216.1-322.8,299.4-781,291.6
			C880.7,5104.3,701,5099.1,648.9,5093.9z M1398.7,4713.8c67.7-78.1,83.3-218.7,36.4-307.2c-44.3-78.1-166.6-127.5-325.4-127.5
			H966.6V4542v262.9l184.8-10.4C1315.3,4786.6,1344,4776.2,1398.7,4713.8z"/>
		<path class="st0" d="M5860.5,5086c-65.1-13.1-166.6-44.3-223.8-65.1l-109.4-41.6l41.6-156.2c33.9-119.8,52-151,83.3-137.9
			c244.7,106.7,424.3,117.1,531.1,33.9c70.3-54.7,88.4-145.8,41.6-231.7c-33.9-62.4-161.4-104.2-315-104.2h-127.5V4227v-156.2H5923
			c78.1,0,171.8-10.4,205.7-23.5c148.3-57.2,216.1-216.1,148.3-343.7c-70.3-130.2-320.2-164-572.7-75.5
			c-78.1,26-145.8,46.8-145.8,44.3c-2.7-2.6-23.5-72.9-44.3-156.2l-41.6-153.6l96.3-39.1c291.6-122.3,710.6-96.3,937.2,52
			c320.2,216.1,312.4,635.2-13.1,801.8l-135.4,70.3l72.9,31.2c252.5,104.2,325.4,432.1,145.8,648.2
			C6456.7,5067.8,6128.7,5140.7,5860.5,5086z"/>
		<path class="st0" d="M3421.4,4974.1c-132.7-59.9-239.5-122.3-242.1-140.6c0-18.3,13.1-88.5,28.7-161.4l26-127.5l166.6,75.5
			c93.7,41.6,174.4,75.5,182.2,75.5c7.8,0,13.1-322.8,13.1-715.9v-715.9h195.3h195.3V4175V5086h-161.5
			C3686.8,5086,3621.7,5067.8,3421.4,4974.1z"/>
		<path class="st0" d="M8346.6,5054.8c-5.2-18.3-28.7-197.8-52-398.3c-23.5-200.5-49.5-395.7-57.2-432.1l-13.1-65.1h218.6
			c356.6,2.7,541.5-101.5,541.5-307.2c0-96.3-125-221.3-247.3-249.9c-114.6-28.7-286.3-10.4-432.1,41.6l-96.3,31.2l-31.2-153.6
			c-18.3-85.9-26-161.4-18.3-169.2c33.9-36.4,309.8-88.5,463.3-88.5c460.8,0,778.4,255.1,778.4,627.4c0,179.6-31.2,270.7-125,369.6
			c-111.9,119.8-257.7,179.6-473.7,197.9l-195.3,15.6l7.9,91.1c18.3,190-2.5,182.2,385.3,182.2H9349v169.2v169.2h-494.7
			C8479.4,5086,8354.4,5078.2,8346.6,5054.8z"/>
		<path class="st0" d="M1005.5,2553.2c-57.2-33.9-127.5-104.2-161.4-161.4c-59.9-104.2-59.9-109.4-59.9-1286
			c0-1171.4,0-1184.5,57.2-1265.2c28.7-46.8,93.7-109.4,143.2-143.2c171.8-117.1,291.6-130.2,1301.6-130.2h944.9V-1323v-887.7
			l62.4-106.7c148.4-255.1,510.3-302,728.9-99c143.2,132.8,145.8,161.4,145.8,1111.5v872.1h754.9h754.9V-1323v-887.7l62.5-106.7
			c192.6-328,713.3-283.8,846.1,70.3c18.2,46.9,28.7,393.1,28.7,944.9v869.5h754.9h754.9V-1323v-887.7l65.1-111.9
			c174.4-296.8,650.8-289,812.2,15.6l59.9,111.9V35.8v2231l-59.9,114.6c-164,307.2-645.6,312.4-817.4,10.4
			c-57.2-101.5-59.9-119.8-59.9-994.4v-893h-754.9h-754.9v877.3c0,835.6-2.6,882.5-54.7,989.2c-153.6,315-648.2,328-822.6,20.8
			c-57.3-101.5-59.9-119.8-59.9-994.4V504.4h-754.9h-754.9v877.3c0,835.6-2.7,882.5-54.7,989.2c-153.6,315-648.2,328-822.6,20.8
			c-57.2-101.5-59.9-119.8-59.9-994.4V504.4h-754.9h-754.9v877.3c0,835.6-2.7,882.5-54.7,989.2
			C1557.4,2597.3,1239.9,2685.9,1005.5,2553.2z"/>
		<path class="st0" d="M8888-3075.1c-322.8-70.3-570-265.5-705.4-554.5c-65.1-135.4-70.3-177-70.3-460.8
			c0-288.9,5.2-322.8,70.3-442.5c83.3-161.4,156.2-229.1,315-299.4c270.7-119.8,632.6-46.8,809.6,161.4
			c111.9,127.5,153.5,286.3,140.6,499.8c-13.1,205.7-104.2,356.6-268.1,442.5c-151,80.7-432.1,75.5-564.9-5.2l-96.3-59.9l26,78
			c15.6,44.3,80.7,127.5,143.2,182.2c125,109.4,270.7,158.7,463.4,158.7h119.8v169.2v169.2l-109.4-2.7
			C9098.9-3038.5,8976.6-3056.8,8888-3075.1z M8958.3-4038.3c57.3-57.2,65.1-88.5,65.1-236.9c0-158.8-5.2-174.4-85.9-247.3
			c-93.8-85.9-156.2-93.7-265.5-36.4c-88.5,46.8-132.7,117.1-158.8,260.3C8461.2-4017.3,8760.5-3842.9,8958.3-4038.3z"/>
		<path class="st0" d="M3244.3-3098.4C3108.9-3140,2971-3213,2971-3241.6c0-13.1,23.5-80.7,54.7-153.6l54.7-130.2l117.1,62.5
			c169.2,88.4,390.5,88.4,486.8-2.7c54.7-52.1,67.7-85.9,67.7-190c0-177-93.7-304.6-484.2-676.9l-322.8-302v-124.9v-125h637.8h637.8
			v169.2v169.2h-338.4h-338.4l244.7,242.1c182.2,177,265.5,281.1,315,390.5c164,356.6,36.4,710.7-296.8,822.6
			C3692.1-3051.6,3377.1-3056.8,3244.3-3098.4z"/>
		<path class="st0" d="M6006.3-3197.4c-247.3-390.5-544-869.5-575.3-934.5c-20.8-39.1-39.1-125-39.1-192.6v-117.1h403.5h403.5
			v-208.2v-208.4H6394h195.3v208.3v208.2h117.1h117.1v156.2v156.2h-117.1h-117.1v533.6v533.6H6342h-247.3L6006.3-3197.4z
			 M6204.2-3770.1l-7.8-359.3h-195.3c-104.2,0-192.6,7.9-192.6,15.6c0,7.9,57.2,111.9,127.5,229.1
			c70.3,114.6,158.8,273.3,197.8,348.8c36.4,78,70.3,135.4,72.8,130.2C6209.4-3408.2,6209.4-3574.8,6204.2-3770.1z"/>
	</g>
</g>
</svg>
