<?xml version="1.0" encoding="utf-8"?>
<!-- Generator: Adobe Illustrator 24.3.0, SVG Export Plug-In . SVG Version: 6.00 Build 0)  -->
<svg version="1.1" id="Layer_1" xmlns="http://www.w3.org/2000/svg" xmlns:xlink="http://www.w3.org/1999/xlink" x="0px" y="0px"
	 viewBox="0 0 24 24" style="enable-background:new 0 0 24 24;" xml:space="preserve">
<style type="text/css">
	.st0{fill:none;}
	.st1{fill:#333333;}
</style>
<path class="st0" d="M0,0h24v24H0V0z"/>
<path class="st1" d="M22.3,15.4l1.7-1.7L22.3,12L18,16.3L7.7,6L12,1.7L10.3,0L8.6,1.7L6.9,0L4.3,2.6L2.6,0.9L0.9,2.6l1.7,1.7L0,6.9
	l1.7,1.7L0,10.3L1.7,12L6,7.7L16.3,18L12,22.3l1.7,1.7l1.7-1.7l1.7,1.7l2.6-2.6l1.7,1.7l1.7-1.7l-1.7-1.7l2.6-2.6L22.3,15.4z"/>
</svg>
