<svg xmlns="http://www.w3.org/2000/svg" width="74" height="74" viewBox="0 0 74 74">
  <g id="Group_19" data-name="Group 19" transform="translate(-139 -608)">
    <rect id="Rectangle_1510" data-name="Rectangle 1510" width="74" height="74" rx="9" transform="translate(139 608)" fill="#2060ac"/>
    <path id="Path_251" data-name="Path 251" d="M972.269-539.806a22.19,22.19,0,0,0-22.182-22.182,22.19,22.19,0,0,0-22.182,22.182A22.16,22.16,0,0,0,946.638-517.9v-15.512h-5.666v-6.4h5.666v-4.889c0-5.551,3.29-8.635,8.361-8.635a31.834,31.834,0,0,1,4.934.457v5.414h-2.787c-2.764,0-3.632,1.736-3.632,3.472v4.158h6.168l-.982,6.4h-5.186v15.511A22.118,22.118,0,0,0,972.269-539.806Z" transform="translate(-773.905 1184.778)" fill="#fff"/>
  </g>
</svg>
