<svg xmlns="http://www.w3.org/2000/svg" xmlns:xlink="http://www.w3.org/1999/xlink" width="74" height="74" viewBox="0 0 74 74">
  <defs>
    <radialGradient id="radial-gradient" cx="0.074" cy="1.089" r="1.584" gradientTransform="translate(0)" gradientUnits="objectBoundingBox">
      <stop offset="0" stop-color="#f77e0b"/>
      <stop offset="0.347" stop-color="#ec411b"/>
      <stop offset="0.572" stop-color="#e30d68"/>
      <stop offset="0.806" stop-color="#482080"/>
      <stop offset="0.863" stop-color="#3c1e75"/>
      <stop offset="0.965" stop-color="#1e1b5a"/>
      <stop offset="1" stop-color="#121a50"/>
    </radialGradient>
  </defs>
  <g id="Group_16" data-name="Group 16" transform="translate(-1440.005 -2158.956)">
    <rect id="Rectangle_1508" data-name="Rectangle 1508" width="74" height="74" rx="14" transform="translate(1440.005 2158.956)" fill="url(#radial-gradient)"/>
    <g id="Group_15" data-name="Group 15" transform="translate(1455.736 2175.189)">
      <g id="Group_14" data-name="Group 14">
        <path id="Path_247" data-name="Path 247" d="M1567.813,2311.236c-5.69,0-6.436-.024-8.681-.127a15.55,15.55,0,0,1-5.113-.979,10.772,10.772,0,0,1-6.161-6.161,15.553,15.553,0,0,1-.979-5.112c-.1-2.246-.127-2.993-.127-8.682s.024-6.436.127-8.681a15.556,15.556,0,0,1,.979-5.113,10.773,10.773,0,0,1,6.161-6.161,15.573,15.573,0,0,1,5.113-.979c2.24-.1,2.986-.126,8.681-.126s6.441.024,8.681.126a15.577,15.577,0,0,1,5.113.979,10.776,10.776,0,0,1,6.161,6.161,15.57,15.57,0,0,1,.979,5.113c.1,2.246.126,2.993.126,8.681s-.024,6.435-.126,8.682a15.571,15.571,0,0,1-.979,5.112,10.775,10.775,0,0,1-6.161,6.161,15.552,15.552,0,0,1-5.113.979C1574.249,2311.211,1573.5,2311.236,1567.813,2311.236Zm0-38.316c-5.626,0-6.291.021-8.508.123a11.655,11.655,0,0,0-3.908.725,6.966,6.966,0,0,0-3.992,3.992,11.645,11.645,0,0,0-.725,3.908c-.1,2.216-.123,2.881-.123,8.507s.022,6.292.123,8.508a11.646,11.646,0,0,0,.725,3.908,6.963,6.963,0,0,0,3.992,3.992,11.636,11.636,0,0,0,3.908.725c2.216.1,2.881.123,8.508.123s6.292-.021,8.508-.123a11.638,11.638,0,0,0,3.908-.725,6.963,6.963,0,0,0,3.993-3.992,11.653,11.653,0,0,0,.725-3.908c.1-2.222.123-2.889.123-8.508s-.021-6.285-.123-8.507a11.654,11.654,0,0,0-.725-3.908,6.966,6.966,0,0,0-3.993-3.992,11.655,11.655,0,0,0-3.908-.725C1574.1,2272.941,1573.439,2272.919,1567.813,2272.919Z" transform="translate(-1546.752 -2269.114)" fill="#fff"/>
        <path id="Path_248" data-name="Path 248" d="M1627.738,2339.4a10.7,10.7,0,1,0,10.7,10.7,10.7,10.7,0,0,0-10.7-10.7m0,17.652a6.948,6.948,0,1,1,6.948-6.948,6.948,6.948,0,0,1-6.948,6.948" transform="translate(-1606.677 -2329.038)" fill="#fff"/>
        <path id="Path_249" data-name="Path 249" d="M1753.845,2321.144a2.527,2.527,0,1,1-2.526-2.526,2.527,2.527,0,0,1,2.526,2.526" transform="translate(-1719.018 -2311.322)" fill="#fff"/>
      </g>
    </g>
  </g>
</svg>
