<svg xmlns="http://www.w3.org/2000/svg" width="74" height="74" viewBox="0 0 74 74">
  <g id="Group_18" data-name="Group 18" transform="translate(-0.325 -2)">
    <rect id="Rectangle_1509" data-name="Rectangle 1509" width="74" height="74" rx="10" transform="translate(0.325 2)" fill="#1d9bf0"/>
    <g id="Group_17" data-name="Group 17" transform="translate(18.765 23.087)">
      <path id="Path_250" data-name="Path 250" d="M137.36,175.858a22.019,22.019,0,0,1-11.905-3.49,18.526,18.526,0,0,0,1.864.1,15.683,15.683,0,0,0,9.632-3.323,7.744,7.744,0,0,1-7.255-5.387,8.577,8.577,0,0,0,1.475.133,7.746,7.746,0,0,0,2.034-.272,7.786,7.786,0,0,1-6.232-7.707,7.9,7.9,0,0,0,3.524.966,7.767,7.767,0,0,1-2.408-10.365,22.143,22.143,0,0,0,16.009,8.111,7.768,7.768,0,0,1,7.563-9.534,7.808,7.808,0,0,1,5.672,2.453,15.6,15.6,0,0,0,4.923-1.886,7.71,7.71,0,0,1-3.408,4.305,15.883,15.883,0,0,0,4.454-1.232,15.419,15.419,0,0,1-3.869,4.029,22.881,22.881,0,0,1-6.244,16.528A21.289,21.289,0,0,1,137.36,175.858Z" transform="translate(-125.455 -145.09)" fill="#fff"/>
    </g>
  </g>
</svg>
